<?xml version="1.0" encoding="UTF-8" standalone="no"?>
<!-- Generator: Adobe Illustrator 24.3.0, SVG Export Plug-In . SVG Version: 6.00 Build 0)  -->
<svg
   version="1.1"
   id="Layer_1"
   x="0px"
   y="0px"
   viewBox="0 0 1220.8192 210.53999"
   xml:space="preserve"
   sodipodi:docname="Progenie_infinity_white.svg"
   width="1222.4301"
   height="210.53999"
   inkscape:version="1.1 (c4e8f9ed74, 2021-05-24)"
   xmlns:inkscape="http://www.inkscape.org/namespaces/inkscape"
   xmlns:sodipodi="http://sodipodi.sourceforge.net/DTD/sodipodi-0.dtd"
   xmlns="http://www.w3.org/2000/svg"
   xmlns:svg="http://www.w3.org/2000/svg"><defs
   id="defs131" /><sodipodi:namedview
   id="namedview129"
   pagecolor="#505050"
   bordercolor="#eeeeee"
   borderopacity="1"
   inkscape:pageshadow="0"
   inkscape:pageopacity="0"
   inkscape:pagecheckerboard="0"
   showgrid="false"
   viewbox-width="500"
   viewbox-height="300"
   fit-margin-top="0"
   fit-margin-left="0"
   fit-margin-right="0"
   fit-margin-bottom="0"
   inkscape:zoom="0.90473268"
   inkscape:cx="513.41132"
   inkscape:cy="53.606995"
   inkscape:window-width="1916"
   inkscape:window-height="1058"
   inkscape:window-x="0"
   inkscape:window-y="18"
   inkscape:window-maximized="1"
   inkscape:current-layer="Layer_1" />
<style
   type="text/css"
   id="style110">
	.st0{fill:#FFFFFF;}
</style>
<path
   class="st0"
   d="m 1221.28,1.65 v 27.26 h -80.55 -8.54 v 8.54 44.75 8.68 h 8.54 80.8 v 27.26 h -80.8 -8.54 v 8.54 44.75 8.68 h 8.54 80.55 v 27.26 h -80.55 -35.94 V 1.65 Z"
   id="path112" />
<path
   class="st0"
   d="M -0.9,148.85 V 71.19 2.06 h 35.94 33.32 c 9.64,0 18.5,1.7 26.58,5.09 7.99,3.3 15.47,8.4 22.45,15.28 6.79,6.7 11.94,14.14 15.42,22.31 3.3,8.17 4.96,17.03 4.96,26.58 0,9.64 -1.65,18.5 -4.96,26.58 -3.4,7.99 -8.49,15.38 -15.28,22.17 -6.89,6.79 -14.41,11.89 -22.58,15.28 -8.17,3.3 -17.03,4.96 -26.58,4.96 H 35.05 26.5 v 8.54 57.97 H -0.9 Z m 27.4,-35.66 h 8.54 l 33.32,0.14 c 5.88,0 11.25,-1.01 16.11,-3.03 4.78,-1.93 9.32,-5 13.63,-9.23 3.95,-4.13 6.98,-8.68 9.09,-13.63 2.11,-4.68 3.17,-10.05 3.17,-16.11 0,-5.88 -1.05,-11.2 -3.17,-15.97 C 105.36,50.77 102.33,46.22 98.1,41.73 94.06,37.6 89.56,34.48 84.61,32.37 79.65,30.26 74.24,29.2 68.36,29.2 H 35.04 26.5 v 8.54 33.46 33.46 z"
   id="path114" />
<path
   class="st0"
   d="m 157.04,2.06 h 63.89 c 10.19,0 19.83,1.79 28.92,5.37 8.63,3.4 16.34,8.31 23.13,14.73 6.98,7.07 11.84,13.81 14.6,20.24 2.94,6.7 4.41,14.73 4.41,24.1 v 5.78 c 0,7.07 -1.05,13.59 -3.17,19.55 -2.02,5.69 -5.14,11.61 -9.36,17.76 -3.58,4.96 -6.98,8.58 -10.19,10.88 -3.03,2.29 -7.25,4.5 -12.67,6.61 l -9.64,3.86 5.65,8.81 43.24,67.06 H 261.7 l -46.68,-71.74 h -30.29 v 71.74 h -27.54 z m 68.03,105.62 0.14,0.14 c 5.6,0 10.51,-0.92 14.73,-2.75 3.76,-1.75 7.67,-4.64 11.7,-8.68 4.13,-4.13 7.07,-8.54 8.81,-13.22 1.75,-4.22 2.62,-9.32 2.62,-15.28 0,-5.42 -0.87,-10.37 -2.62,-14.87 -1.65,-3.86 -4.54,-7.99 -8.68,-12.39 v -0.14 c -3.76,-3.67 -8.72,-6.52 -14.87,-8.54 -5.78,-1.93 -12.02,-2.89 -18.73,-2.89 h -25.06 -8.54 v 8.68 61.28 8.54 h 8.54 l 10.33,0.14 h 6.89 14.74 z"
   id="path116" />
<path
   class="st0"
   d="m 841.16,1.65 v 27.26 h -80.55 -8.54 v 8.54 44.75 8.68 h 8.54 80.8 v 27.26 h -80.8 -8.54 v 8.54 44.75 8.68 h 8.54 80.55 v 27.26 H 760.61 724.67 V 1.65 Z"
   id="path118" />
<path
   class="st0"
   d="M 999.15,140.59 V 116.22 1.65 h 27.4 V 210.54 L 892.84,68.02 v 15.7 123.65 h -27.4 V 0 Z"
   id="path120" />
<path
   class="st0"
   d="m 1051.09,2.06 h 27.4 v 204.76 h -27.4 z"
   id="path122" />
<path
   class="st0"
   d="m 507.35,64.72 c -0.32,-0.77 -0.65,-1.53 -0.99,-2.29 -0.15,0.25 -5.63,9.81 -8.67,29.86 -3.03,20 -19.98,48.74 -19.98,48.74 l 0.01,-0.07 c -3.41,6.1 -7.8,11.85 -13.19,17.25 -7.34,7.34 -15.56,12.9 -24.65,16.66 -9.09,3.76 -18.77,5.65 -29.05,5.65 -10.37,0 -20.15,-1.88 -29.33,-5.65 -9.27,-3.76 -17.44,-9.32 -24.51,-16.66 -7.62,-7.53 -13.22,-15.74 -16.8,-24.65 -3.67,-8.81 -5.51,-18.55 -5.51,-29.19 0,-10.47 1.84,-20.2 5.51,-29.19 3.67,-8.91 9.27,-17.12 16.8,-24.65 7.07,-7.16 15.24,-12.76 24.51,-16.8 9.18,-3.76 18.96,-5.65 29.33,-5.65 10.28,0 19.97,1.88 29.05,5.65 9.18,3.95 17.44,9.55 24.79,16.8 7.34,7.62 12.9,15.84 16.66,24.65 1.26,2.97 2.3,6.02 3.14,9.13 2.34,-7.88 7.52,-23.69 14.37,-35.56 C 494.79,42.6 489.97,36.72 484.36,31.11 473.89,20.74 462.65,13.02 450.62,7.98 438.6,2.93 425.33,0.41 410.82,0.41 c -14.69,0 -28,2.52 -39.93,7.57 -12.12,5.05 -23.32,12.71 -33.6,23 -10.37,10.56 -17.99,21.85 -22.86,33.87 -5.05,12.02 -7.57,25.29 -7.57,39.8 0,14.6 2.53,27.86 7.57,39.8 4.87,12.21 12.49,23.45 22.86,33.74 10.1,10.19 21.3,17.81 33.6,22.86 12.3,5.05 25.61,7.57 39.93,7.57 14.14,0 27.4,-2.53 39.8,-7.57 12.39,-5.14 23.64,-12.76 33.74,-22.86 10.28,-10.19 17.95,-21.39 23,-33.6 5.14,-12.3 7.71,-25.61 7.71,-39.93 -0.01,-14.24 -2.58,-27.55 -7.72,-39.94 z"
   id="path124" />
<path
   class="st0"
   d="m 595.6,0.69 h 6.2 c 7.25,0 14.18,0.69 20.79,2.07 6.98,1.47 13.45,3.49 19.42,6.06 6.15,2.66 12.12,5.92 17.9,9.78 2.57,1.74 5.6,3.99 9.09,6.75 l -19.55,19.69 c -5.6,-4.5 -11.7,-8.17 -18.31,-11.02 -8.91,-3.76 -18.59,-5.65 -29.05,-5.65 -10.74,0 -20.47,1.88 -29.19,5.65 -8.91,3.67 -17.12,9.27 -24.65,16.8 -7.44,7.62 -12.99,15.84 -16.66,24.65 -3.76,9.27 -5.65,19 -5.65,29.19 0,10.28 1.88,20.01 5.65,29.19 3.67,8.9 9.23,17.12 16.66,24.65 7.44,7.53 15.65,13.13 24.65,16.8 9.18,3.76 18.91,5.65 29.19,5.65 8.08,0 15.93,-1.24 23.55,-3.72 7.16,-2.2 14.09,-5.74 20.79,-10.6 5.41,-4.04 10.1,-8.49 14.05,-13.36 4.13,-4.96 7.57,-10.33 10.33,-16.11 l 5.78,-12.26 H 662.96 608.29 V 99.43 h 2.34 94.74 c 0.37,14.5 -1.61,27.95 -5.92,40.35 -4.96,14.6 -13.04,27.4 -24.24,38.42 -10.37,10.19 -21.62,17.81 -33.74,22.86 -12.03,5.05 -25.29,7.57 -39.8,7.57 -14.6,0 -27.86,-2.53 -39.8,-7.57 -12.3,-5.05 -23.5,-12.67 -33.6,-22.86 -10.47,-10.37 -18.09,-21.57 -22.86,-33.6 -5.05,-12.12 -7.57,-25.43 -7.57,-39.93 0,-14.41 2.52,-27.72 7.57,-39.93 4.77,-11.94 12.39,-23.18 22.86,-33.74 10.01,-10.19 21.21,-17.86 33.6,-23 10.1,-4.32 21.3,-6.84 33.6,-7.57 z"
   id="path126" />
</svg>
