<?xml version="1.0" encoding="UTF-8" standalone="no"?>
<!-- Generator: Adobe Illustrator 24.3.0, SVG Export Plug-In . SVG Version: 6.00 Build 0)  -->

<svg
   version="1.1"
   x="0px"
   y="0px"
   viewBox="0 0 892.26019 999.26001"
   xml:space="preserve"
   id="svg265"
   sodipodi:docname="Squiggle.svg"
   width="892.26019"
   height="999.26001"
   inkscape:version="1.1 (c4e8f9ed74, 2021-05-24)"
   xmlns:inkscape="http://www.inkscape.org/namespaces/inkscape"
   xmlns:sodipodi="http://sodipodi.sourceforge.net/DTD/sodipodi-0.dtd"
   xmlns="http://www.w3.org/2000/svg"
   xmlns:svg="http://www.w3.org/2000/svg"><defs
   id="defs269" /><sodipodi:namedview
   id="namedview267"
   pagecolor="#505050"
   bordercolor="#eeeeee"
   borderopacity="1"
   inkscape:pageshadow="0"
   inkscape:pageopacity="0"
   inkscape:pagecheckerboard="0"
   showgrid="false"
   fit-margin-top="0"
   fit-margin-left="0"
   fit-margin-right="0"
   fit-margin-bottom="0"
   inkscape:zoom="0.82647059"
   inkscape:cx="470.07117"
   inkscape:cy="479.75089"
   inkscape:window-width="1916"
   inkscape:window-height="1058"
   inkscape:window-x="0"
   inkscape:window-y="18"
   inkscape:window-maximized="1"
   inkscape:current-layer="Layer_3" />
<style
   type="text/css"
   id="style162">
	.st0{display:none;}
	.st1{display:none;opacity:0.1;enable-background:new    ;}
	.st2{display:inline;}
	.st3{fill:#FF0000;}
	.st4{fill:#733D9D;}
	.st5{fill:#A375FF;}
</style>
<g
   id="Guides"
   class="st0"
   transform="translate(-39.999833,-8.7300034)">
</g>
<g
   id="_x31_2_Col_Grid"
   class="st1"
   transform="translate(-39.999833,-8.7300034)">
	<g
   class="st2"
   id="g213">
		<g
   id="g167">
			<rect
   x="920"
   class="st3"
   width="60"
   height="1020"
   id="rect165"
   y="0" />
		</g>
		<g
   id="g171">
			<rect
   x="840"
   class="st3"
   width="60"
   height="1020"
   id="rect169"
   y="0" />
		</g>
		<g
   id="g175">
			<rect
   x="760"
   class="st3"
   width="60"
   height="1020"
   id="rect173"
   y="0" />
		</g>
		<g
   id="g179">
			<rect
   x="680"
   class="st3"
   width="60"
   height="1020"
   id="rect177"
   y="0" />
		</g>
		<g
   id="g183">
			<rect
   x="600"
   class="st3"
   width="60"
   height="1020"
   id="rect181"
   y="0" />
		</g>
		<g
   id="g187">
			<rect
   x="520"
   class="st3"
   width="60"
   height="1020"
   id="rect185"
   y="0" />
		</g>
		<g
   id="g191">
			<rect
   x="440"
   class="st3"
   width="60"
   height="1020"
   id="rect189"
   y="0" />
		</g>
		<g
   id="g195">
			<rect
   x="360"
   class="st3"
   width="60"
   height="1020"
   id="rect193"
   y="0" />
		</g>
		<g
   id="g199">
			<rect
   x="280"
   class="st3"
   width="60"
   height="1020"
   id="rect197"
   y="0" />
		</g>
		<g
   id="g203">
			<rect
   x="200"
   class="st3"
   width="60"
   height="1020"
   id="rect201"
   y="0" />
		</g>
		<g
   id="g207">
			<rect
   x="120"
   class="st3"
   width="60"
   height="1020"
   id="rect205"
   y="0" />
		</g>
		<g
   id="g211">
			<rect
   x="40"
   class="st3"
   width="60"
   height="1020"
   id="rect209"
   y="0" />
		</g>
	</g>
</g>
<g
   id="Layer_3"
   transform="translate(-39.999833,-8.7300034)">
	
	
	<path
   class="st4"
   d="m 246.22,270.61 1.67,25.74 c 55.55,-3.6 97.66,-51.55 94.06,-107.09 l -25.74,1.67 c 2.68,41.32 -28.65,77 -69.99,79.68 z"
   id="path220" />
	<g
   id="g228">
		<path
   class="st4"
   d="m 418.35,331.14 -9.33,24.05 c 51.9,20.13 110.28,-5.63 130.41,-57.53 l -24.05,-9.33 c -14.97,38.63 -58.42,57.79 -97.03,42.81 z"
   id="path222" />
		<path
   class="st4"
   d="m 538.29,300.59 -23.52,-10.57 c 22.82,-50.77 82.47,-73.43 133.25,-50.61 l -10.57,23.52 c -37.79,-16.98 -82.18,-0.12 -99.16,37.66 z"
   id="path224" />
		<path
   class="st4"
   d="m 647.11,238.93 -12.93,22.31 c 48.16,27.91 109.83,11.5 137.74,-36.65 l -22.31,-12.93 c -20.78,35.83 -66.67,48.04 -102.5,27.27 z"
   id="path226" />
	</g>
	<g
   id="g234">
		<path
   class="st4"
   d="m 591.32,506.26 -13.96,-21.69 c 46.81,-30.12 109.17,-16.6 139.3,30.21 l -21.69,13.96 C 672.56,493.91 626.15,483.85 591.32,506.26 Z"
   id="path230" />
		<path
   class="st4"
   d="m 483.31,442.96 -23.68,10.22 c 22.05,51.11 81.36,74.66 132.47,52.61 l -10.22,-23.68 c -38.03,16.4 -82.16,-1.12 -98.57,-39.15 z"
   id="path232" />
	</g>
	<path
   class="st4"
   d="m 323.97,709.34 -8.56,-24.33 c -52.5,18.48 -80.09,76.03 -61.6,128.53 l 24.33,-8.56 c -13.76,-39.06 6.76,-81.88 45.83,-95.64 z"
   id="path236" />
	<g
   id="g248">
		<path
   class="st4"
   d="m 704.73,850.69 2.06,-25.71 c 55.48,4.45 96.85,53.04 92.4,108.53 l -25.71,-2.06 C 776.79,890.16 746.01,854 704.73,850.69 Z"
   id="path238" />
		<g
   id="g246">
			<path
   class="st4"
   d="m 478.25,559 -25.79,-0.06 C 452.32,614.6 497.34,659.83 553,659.97 l 0.06,-25.79 C 511.64,634.08 478.15,600.42 478.25,559 Z"
   id="path240" />
			<path
   class="st4"
   d="m 549.86,659.95 1.41,-25.75 c 55.58,3.05 98.16,50.58 95.11,106.16 l -25.75,-1.41 c 2.28,-41.36 -29.41,-76.73 -70.77,-79 z"
   id="path242" />
			<path
   class="st4"
   d="m 646.5,739.35 -25.47,-4.05 c -8.74,54.97 28.73,106.62 83.7,115.37 l 4.05,-25.47 C 667.88,818.68 640,780.25 646.5,739.35 Z"
   id="path244" />
		</g>
	</g>
	<circle
   class="st5"
   cx="335.13"
   cy="123.86"
   r="115.13"
   id="circle250" />
	<circle
   class="st5"
   cx="817.13"
   cy="146.86"
   r="115.13"
   id="circle252" />
	<circle
   class="st5"
   cx="784.13"
   cy="570.85999"
   r="115.13"
   id="circle254" />
	<circle
   class="st5"
   cx="331.13"
   cy="892.85999"
   r="115.13"
   id="circle256" />
	<circle
   class="st5"
   cx="808.13"
   cy="881.85999"
   r="115.13"
   id="circle258" />
	<path
   class="st5"
   d="M 264.73,268 C 140.47,268.15 39.85,369 40,493.27 40.15,617.53 141,718.15 265.27,718 389.53,717.85 490.15,617 490,492.73 489.85,368.46 389,267.85 264.73,268 Z m 0.5,420 C 157.54,688.13 70.13,600.93 70,493.23 69.87,385.53 157.07,298.13 264.77,298 372.47,297.87 459.87,385.07 460,492.77 460.13,600.46 372.93,687.87 265.23,688 Z"
   id="path260" />
	
</g>
</svg>
